<svg xmlns="http://www.w3.org/2000/svg" viewBox="0 0 36 36" width="36" height="36"><defs><mask id="ring"><g fill="#fff"><path d="M18 13.2 C15 9.8 11.6 9.2 11.6 6.2 C11.6 4.1 14.4 3.3 16.4 5.2 C16.9 4.4 17.4 4.4 18 5.1 C18.6 4.4 19.1 4.4 19.6 5.2 C21.6 3.3 24.4 4.1 24.4 6.2 C24.4 9.2 21 9.8 18 13.2 Z"/><ellipse cx="18" cy="21.5" rx="11.6" ry="10.6"/><path d="M15.8 28.8 L20.2 28.8 L18 32.4 Z"/></g><g fill="#000" transform="translate(18,20) scale(0.80) translate(-18,-20)"><path d="M18 13.2 C15 9.8 11.6 9.2 11.6 6.2 C11.6 4.1 14.4 3.3 16.4 5.2 C16.9 4.4 17.4 4.4 18 5.1 C18.6 4.4 19.1 4.4 19.6 5.2 C21.6 3.3 24.4 4.1 24.4 6.2 C24.4 9.2 21 9.8 18 13.2 Z"/><ellipse cx="18" cy="21.5" rx="11.6" ry="10.6"/><path d="M15.8 28.8 L20.2 28.8 L18 32.4 Z"/></g></mask></defs><g fill="#000" mask="url(#ring)"><path d="M18 13.2 C15 9.8 11.6 9.2 11.6 6.2 C11.6 4.1 14.4 3.3 16.4 5.2 C16.9 4.4 17.4 4.4 18 5.1 C18.6 4.4 19.1 4.4 19.6 5.2 C21.6 3.3 24.4 4.1 24.4 6.2 C24.4 9.2 21 9.8 18 13.2 Z"/><ellipse cx="18" cy="21.5" rx="11.6" ry="10.6"/><path d="M15.8 28.8 L20.2 28.8 L18 32.4 Z"/></g><path d="M10.4 20.6 q2.8 2.6 5.6 0" fill="none" stroke="#000" stroke-width="1.7" stroke-linecap="round"/><path d="M20 20.6 q2.8 2.6 5.6 0" fill="none" stroke="#000" stroke-width="1.7" stroke-linecap="round"/><path d="M27.6 4.8 H32.2 L28.2 9.4 H32.8" fill="none" stroke="#000" stroke-width="1.7" stroke-linecap="round" stroke-linejoin="round"/></svg>