<svg xmlns="http://www.w3.org/2000/svg" viewBox="0 0 36 36" width="36" height="36"><mask id="m"><rect width="36" height="36" fill="#fff"/><rect x="8.6" y="18.4" width="8.2" height="5.0" rx="2.4" fill="#000"/><rect x="19.2" y="18.4" width="8.2" height="5.0" rx="2.4" fill="#000"/></mask><g fill="#000" mask="url(#m)"><path d="M18 13.2 C15 9.8 11.6 9.2 11.6 6.2 C11.6 4.1 14.4 3.3 16.4 5.2 C16.9 4.4 17.4 4.4 18 5.1 C18.6 4.4 19.1 4.4 19.6 5.2 C21.6 3.3 24.4 4.1 24.4 6.2 C24.4 9.2 21 9.8 18 13.2 Z"/><ellipse cx="18" cy="21.5" rx="11.6" ry="10.6"/><path d="M15.8 28.8 L20.2 28.8 L18 32.4 Z"/></g></svg>