<svg xmlns="http://www.w3.org/2000/svg" viewBox="0 0 1024 1024" width="1024" height="1024"><defs><linearGradient id="g" x1="0" y1="0" x2="0" y2="1">
    <stop offset="0" stop-color="#2C2F58"/><stop offset="1" stop-color="#15172C"/></linearGradient></defs><rect x="0" y="0" width="1024" height="1024" rx="228" ry="228" fill="url(#g)"/>
  <g stroke="#6FE9D0" fill="none" stroke-linecap="round" opacity="0.32">
    <path d="M250 250 C250 210 280 196 312 200" stroke-width="12"/>
    <path d="M226 286 C220 224 262 188 318 192" stroke-width="12" opacity="0.6"/>
    <path d="M774 250 C774 210 744 196 712 200" stroke-width="12"/>
    <path d="M798 286 C804 224 762 188 706 192" stroke-width="12" opacity="0.6"/>
  </g>
  <g transform="rotate(-6 512 320)">
    <path d="M512 372C468 330 426 312 426 272C426 240 466 228 498 258C504 248 510 248 512 256C514 248 520 248 526 258C558 228 598 240 598 272C598 312 556 330 512 372 Z"
          fill="#E8392E" stroke="#2A1C12" stroke-width="22" stroke-linejoin="round"/>
    <path d="M500 300 C500 320 506 340 512 352" fill="none" stroke="#C92D24"
          stroke-width="10" stroke-linecap="round" opacity="0.6"/>
  </g>
  <path d="M512 352C672 352 812 430 812 566C812 706 700 802 512 802C324 802 212 706 212 566C212 430 352 352 512 352 Z"
        fill="#FFFDF8" stroke="#2A1C12" stroke-width="22" stroke-linejoin="round"/>
  <ellipse cx="352" cy="624" rx="46" ry="30" fill="#F4A39B" opacity="0.55"/>
  <ellipse cx="672" cy="624" rx="46" ry="30" fill="#F4A39B" opacity="0.55"/>
  <g transform="rotate(-3 512 540)">
    <path d="M356 530 H308" stroke="#2A1C12" stroke-width="16" stroke-linecap="round"/>
    <path d="M668 530 H716" stroke="#2A1C12" stroke-width="16" stroke-linecap="round"/>
    <rect x="356" y="500" width="132" height="74" rx="30" fill="#15151D" stroke="#2A1C12" stroke-width="16"/>
    <rect x="536" y="500" width="132" height="74" rx="30" fill="#15151D" stroke="#2A1C12" stroke-width="16"/>
    <path d="M488 524 H536" stroke="#2A1C12" stroke-width="16" stroke-linecap="round"/>
    <path d="M380 558 L412 520" stroke="#FFFFFF" stroke-width="9" stroke-linecap="round" opacity="0.22"/>
    <path d="M560 558 L592 520" stroke="#FFFFFF" stroke-width="9" stroke-linecap="round" opacity="0.22"/>
  </g>
  <path d="M512 566C540 572 556 586 556 596C556 608 540 622 512 626C484 622 468 608 468 596C468 586 484 572 512 566 Z"
        fill="#F6A623" stroke="#2A1C12" stroke-width="18" stroke-linejoin="round"/>
  <path d="M468 596 H556" stroke="#C9821A" stroke-width="9" stroke-linecap="round"/>
  <path d="M494 626C486 660 492 690 512 690C532 690 538 660 530 626 Z"
        fill="#E8392E" stroke="#2A1C12" stroke-width="16" stroke-linejoin="round"/></svg>