<svg xmlns="http://www.w3.org/2000/svg" viewBox="190 185 645 635">

  <!-- comb -->
  <g transform="rotate(-6 512 320)">
    <path d="M512 372C468 330 426 312 426 272C426 240 466 228 498 258C504 248 510 248 512 256C514 248 520 248 526 258C558 228 598 240 598 272C598 312 556 330 512 372 Z"
          fill="#E8392E" stroke="#2A1C12" stroke-width="22" stroke-linejoin="round"/>
  </g>

  <!-- body -->
  <path d="M512 352C672 352 812 430 812 566C812 706 700 802 512 802C324 802 212 706 212 566C212 430 352 352 512 352 Z"
        fill="#FFFDF8" stroke="#2A1C12" stroke-width="22" stroke-linejoin="round"/>

  <!-- cheeks -->
  <ellipse cx="352" cy="624" rx="46" ry="30" fill="#F4A39B" opacity="0.55"/>
  <ellipse cx="672" cy="624" rx="46" ry="30" fill="#F4A39B" opacity="0.55"/>

  <!-- eyes -->
  <circle cx="422" cy="530" r="38" fill="#1a1f3a" stroke="#2A1C12" stroke-width="16"/>
  <circle cx="602" cy="530" r="38" fill="#1a1f3a" stroke="#2A1C12" stroke-width="16"/>
  <circle cx="434" cy="518" r="12" fill="white" opacity="0.35"/>
  <circle cx="614" cy="518" r="12" fill="white" opacity="0.35"/>

  <!-- beak -->
  <path d="M512 580C540 586 556 600 556 610C556 622 540 636 512 640C484 636 468 622 468 610C468 600 484 586 512 580 Z"
        fill="#F6A623" stroke="#2A1C12" stroke-width="18" stroke-linejoin="round"/>
  <path d="M468 610 H556" stroke="#C9821A" stroke-width="9" stroke-linecap="round"/>

  <!-- wattle -->
  <path d="M494 640C486 674 492 704 512 704C532 704 538 674 530 640 Z"
        fill="#E8392E" stroke="#2A1C12" stroke-width="16" stroke-linejoin="round"/>

  <!-- right wing holding phone (raised up) -->
  <path d="M720 480 C780 460 820 500 800 560 C790 600 750 610 720 580 Z"
        fill="#FFFDF8" stroke="#2A1C12" stroke-width="18" stroke-linejoin="round"/>

  <!-- phone body -->
  <rect x="740" y="390" width="90" height="150" rx="14" fill="#1a1f3a" stroke="#2A1C12" stroke-width="14"/>
  <!-- phone screen (glowing) -->
  <rect x="750" y="408" width="70" height="110" rx="8" fill="#3a5a9a"/>
  <!-- wifi signal on screen -->
  <path d="M785 480 C770 468 758 472 754 480" fill="none" stroke="#7eb0ff" stroke-width="6" stroke-linecap="round" opacity="0.5"/>
  <path d="M785 480 C765 462 748 468 742 480" fill="none" stroke="#7eb0ff" stroke-width="6" stroke-linecap="round" opacity="0.75"/>
  <path d="M785 480 C760 456 738 464 730 480" fill="none" stroke="#7eb0ff" stroke-width="6" stroke-linecap="round"/>
  <circle cx="785" cy="484" r="6" fill="#7eb0ff"/>
  <!-- home bar -->
  <rect x="771" y="526" width="28" height="5" rx="3" fill="#7eb0ff" opacity="0.5"/>

</svg>
