<svg xmlns="http://www.w3.org/2000/svg" viewBox="190 185 645 635">

  <!-- comb -->
  <g transform="rotate(-6 512 320)">
    <path d="M512 372C468 330 426 312 426 272C426 240 466 228 498 258C504 248 510 248 512 256C514 248 520 248 526 258C558 228 598 240 598 272C598 312 556 330 512 372 Z"
          fill="#E8392E" stroke="#2A1C12" stroke-width="22" stroke-linejoin="round"/>
    <path d="M500 300 C500 320 506 340 512 352" fill="none" stroke="#C92D24"
          stroke-width="10" stroke-linecap="round" opacity="0.6"/>
  </g>

  <!-- body -->
  <path d="M512 352C672 352 812 430 812 566C812 706 700 802 512 802C324 802 212 706 212 566C212 430 352 352 512 352 Z"
        fill="#FFFDF8" stroke="#2A1C12" stroke-width="22" stroke-linejoin="round"/>

  <!-- cheeks -->
  <ellipse cx="352" cy="624" rx="46" ry="30" fill="#F4A39B" opacity="0.55"/>
  <ellipse cx="672" cy="624" rx="46" ry="30" fill="#F4A39B" opacity="0.55"/>

  <!-- glasses -->
  <g transform="rotate(-3 512 540)">
    <!-- temple arms -->
    <path d="M356 530 H308" stroke="#2A1C12" stroke-width="16" stroke-linecap="round"/>
    <path d="M668 530 H716" stroke="#2A1C12" stroke-width="16" stroke-linecap="round"/>
    <!-- left lens -->
    <rect x="356" y="500" width="132" height="74" rx="30" fill="#1a1f3a" stroke="#2A1C12" stroke-width="16"/>
    <!-- right lens -->
    <rect x="536" y="500" width="132" height="74" rx="30" fill="#1a1f3a" stroke="#2A1C12" stroke-width="16"/>
    <!-- bridge -->
    <path d="M488 524 H536" stroke="#2A1C12" stroke-width="16" stroke-linecap="round"/>
    <!-- lens glare -->
    <path d="M380 558 L412 520" stroke="#FFFFFF" stroke-width="9" stroke-linecap="round" opacity="0.3"/>
    <path d="M560 558 L592 520" stroke="#FFFFFF" stroke-width="9" stroke-linecap="round" opacity="0.3"/>
  </g>

  <!-- beak -->
  <path d="M512 566C540 572 556 586 556 596C556 608 540 622 512 626C484 622 468 608 468 596C468 586 484 572 512 566 Z"
        fill="#F6A623" stroke="#2A1C12" stroke-width="18" stroke-linejoin="round"/>
  <path d="M468 596 H556" stroke="#C9821A" stroke-width="9" stroke-linecap="round"/>

  <!-- wattle -->
  <path d="M494 626C486 660 492 690 512 690C532 690 538 660 530 626 Z"
        fill="#E8392E" stroke="#2A1C12" stroke-width="16" stroke-linejoin="round"/>

</svg>
